<svg width="52" height="52" viewBox="0 0 52 52" fill="none" xmlns="http://www.w3.org/2000/svg">
<path d="M8.66405 12.998C8.66405 12.4838 8.51158 11.9812 8.22593 11.5537C7.94029 11.1262 7.53428 10.793 7.05927 10.5963C6.58425 10.3995 6.06156 10.348 5.55729 10.4483C5.05302 10.5486 4.58981 10.7962 4.22625 11.1598C3.86269 11.5233 3.6151 11.9865 3.5148 12.4908C3.41449 12.9951 3.46597 13.5178 3.66273 13.9928C3.85949 14.4678 4.19268 14.8738 4.62018 15.1595C5.04769 15.4451 5.55029 15.5976 6.06445 15.5976C6.75367 15.5968 7.41443 15.3227 7.90179 14.8353C8.38914 14.348 8.66327 13.6872 8.66405 12.998ZM5.19791 12.998C5.19791 12.8266 5.24873 12.6591 5.34395 12.5166C5.43917 12.3741 5.5745 12.263 5.73284 12.1974C5.89118 12.1318 6.06541 12.1147 6.2335 12.1481C6.40159 12.1815 6.55599 12.2641 6.67718 12.3852C6.79836 12.5064 6.88089 12.6608 6.91433 12.8289C6.94776 12.997 6.9306 13.1712 6.86502 13.3296C6.79943 13.4879 6.68837 13.6233 6.54587 13.7185C6.40337 13.8137 6.23583 13.8645 6.06445 13.8645C5.83471 13.8643 5.61445 13.7729 5.452 13.6104C5.28955 13.448 5.19817 13.2277 5.19791 12.998Z" fill="#407DC9"/>
<path d="M19.0638 4.33264C17.3499 4.33264 15.6746 4.84085 14.2496 5.79301C12.8246 6.74517 11.7139 8.09851 11.0581 9.6819C10.4022 11.2653 10.2306 13.0076 10.5649 14.6885C10.8993 16.3694 11.7246 17.9134 12.9365 19.1253C14.1483 20.3372 15.6923 21.1625 17.3733 21.4968C19.0542 21.8312 20.7965 21.6596 22.3799 21.0037C23.9632 20.3478 25.3166 19.2372 26.2687 17.8122C27.2209 16.3872 27.7291 14.7118 27.7291 12.998C27.7265 10.7006 26.8127 8.49804 25.1882 6.87354C23.5637 5.24904 21.3612 4.33525 19.0638 4.33264ZM19.0638 19.9302C17.6927 19.9302 16.3524 19.5237 15.2124 18.7619C14.0724 18.0002 13.1839 16.9175 12.6592 15.6508C12.1345 14.3841 11.9972 12.9903 12.2647 11.6456C12.5322 10.3008 13.1924 9.06562 14.1619 8.09612C15.1314 7.12663 16.3666 6.46639 17.7114 6.19891C19.0561 5.93143 20.4499 6.06871 21.7166 6.5934C22.9833 7.11808 24.066 8.00661 24.8277 9.14662C25.5895 10.2866 25.996 11.6269 25.996 12.998C25.994 14.8359 25.263 16.5979 23.9634 17.8976C22.6637 19.1972 20.9017 19.9282 19.0638 19.9302Z" fill="#407DC9"/>
<path d="M23.3964 25.9961H6.06575C5.83593 25.9961 5.61553 26.0874 5.45302 26.2499C5.29051 26.4124 5.19922 26.6328 5.19922 26.8626C5.19922 27.0924 5.29051 27.3129 5.45302 27.4754C5.61553 27.6379 5.83593 27.7292 6.06575 27.7292H23.3964C23.6262 27.7292 23.8467 27.6379 24.0092 27.4754C24.1717 27.3129 24.263 27.0924 24.263 26.8626C24.263 26.6328 24.1717 26.4124 24.0092 26.2499C23.8467 26.0874 23.6262 25.9961 23.3964 25.9961Z" fill="#407DC9"/>
<path d="M23.3964 29.8954H6.06575C5.83593 29.8954 5.61553 29.9867 5.45302 30.1492C5.29051 30.3117 5.19922 30.5321 5.19922 30.7619C5.19922 30.9917 5.29051 31.2121 5.45302 31.3747C5.61553 31.5372 5.83593 31.6285 6.06575 31.6285H23.3964C23.6262 31.6285 23.8467 31.5372 24.0092 31.3747C24.1717 31.2121 24.263 30.9917 24.263 30.7619C24.263 30.5321 24.1717 30.3117 24.0092 30.1492C23.8467 29.9867 23.6262 29.8954 23.3964 29.8954Z" fill="#407DC9"/>
<path d="M23.3964 33.7948H6.06575C5.83593 33.7948 5.61553 33.8861 5.45302 34.0486C5.29051 34.2111 5.19922 34.4315 5.19922 34.6613C5.19922 34.8912 5.29051 35.1116 5.45302 35.2741C5.61553 35.4366 5.83593 35.5279 6.06575 35.5279H23.3964C23.6262 35.5279 23.8467 35.4366 24.0092 35.2741C24.1717 35.1116 24.263 34.8912 24.263 34.6613C24.263 34.4315 24.1717 34.2111 24.0092 34.0486C23.8467 33.8861 23.6262 33.7948 23.3964 33.7948Z" fill="#407DC9"/>
<path d="M38.1302 15.6001C36.4163 15.6001 34.741 16.1083 33.316 17.0605C31.891 18.0126 30.7803 19.366 30.1245 20.9494C29.4686 22.5327 29.297 24.275 29.6313 25.956C29.9657 27.6369 30.791 29.1809 32.0029 30.3928C33.2147 31.6046 34.7587 32.4299 36.4397 32.7643C38.1206 33.0986 39.8629 32.927 41.4463 32.2712C43.0296 31.6153 44.383 30.5046 45.3351 29.0796C46.2873 27.6546 46.7955 25.9793 46.7955 24.2654C46.7929 21.968 45.8792 19.7655 44.2547 18.141C42.6301 16.5165 40.4276 15.6027 38.1302 15.6001ZM31.1979 24.2654C31.1999 22.7293 31.7111 21.2371 32.6516 20.0225C33.5921 18.8079 34.9088 17.9394 36.3956 17.553V30.9779C34.9088 30.5915 33.5921 29.723 32.6516 28.5084C31.7111 27.2938 31.1998 25.8016 31.1979 24.2654ZM38.1302 31.1977H38.1287V17.3332H38.1302C39.9687 17.3332 41.732 18.0635 43.032 19.3636C44.3321 20.6636 45.0625 22.4269 45.0625 24.2654C45.0625 26.104 44.3321 27.8672 43.032 29.1673C41.732 30.4673 39.9687 31.1977 38.1302 31.1977Z" fill="#407DC9"/>
<path d="M51.7388 48.1958L47.7324 39.8714C47.7041 39.7607 47.654 39.6567 47.5852 39.5655L46.1554 36.5941C46.1059 36.4913 46.0365 36.3992 45.9513 36.3233C45.8661 36.2473 45.7668 36.1889 45.659 36.1514C45.5511 36.114 45.437 36.0982 45.323 36.105C45.2091 36.1118 45.0976 36.141 44.995 36.191L44.2161 36.5701L43.515 35.1317C45.9673 33.9172 47.9369 31.9092 49.1038 29.4339C50.2707 26.9587 50.5664 24.1615 49.9427 21.497C49.319 18.8325 47.8127 16.4571 45.6684 14.7569C43.5242 13.0566 40.868 12.1314 38.1315 12.1315H38.1275V0.866534C38.1275 0.636715 38.0362 0.416308 37.8737 0.253802C37.7112 0.0912952 37.4908 0 37.2609 0H0.866534C0.636715 0 0.416308 0.0912952 0.253802 0.253802C0.0912952 0.416308 0 0.636715 0 0.866534V43.6329C-3.46209e-07 43.7492 0.0234295 43.8644 0.0688925 43.9715C0.114355 44.0786 0.180921 44.1754 0.264618 44.2563L2.86422 46.7663C3.02577 46.9223 3.24157 47.0095 3.46613 47.0095C3.6907 47.0095 3.9065 46.9223 4.06805 46.7663L6.06574 44.8374L8.06342 46.7663C8.22497 46.9223 8.44077 47.0095 8.66534 47.0095C8.8899 47.0095 9.1057 46.9223 9.26725 46.7663L11.2649 44.8374L13.2626 46.7663C13.4242 46.9223 13.64 47.0095 13.8645 47.0095C14.0891 47.0095 14.3049 46.9223 14.4665 46.7663L16.4641 44.8374L18.4618 46.7663C18.6234 46.9223 18.8392 47.0095 19.0637 47.0095C19.2883 47.0095 19.5041 46.9223 19.6657 46.7663L21.6633 44.8374L23.661 46.7663C23.8226 46.9223 24.0384 47.0095 24.2629 47.0095C24.4875 47.0095 24.7033 46.9223 24.8649 46.7663L26.8625 44.8374L28.8602 46.7663C29.0218 46.9223 29.2376 47.0095 29.4621 47.0095C29.6867 47.0095 29.9025 46.9223 30.0641 46.7663L32.0617 44.8374L34.0594 46.7663C34.221 46.9223 34.4368 47.0095 34.6613 47.0095C34.8859 47.0095 35.1017 46.9223 35.2633 46.7663L37.8629 44.2563C37.9466 44.1754 38.0131 44.0786 38.0586 43.9715C38.1041 43.8644 38.1275 43.7492 38.1275 43.6329V36.3944H38.1315C39.4144 36.3953 40.6893 36.1919 41.9082 35.7917L42.6578 37.3298L41.8788 37.7089C41.673 37.8094 41.5152 37.9872 41.4401 38.2036C41.365 38.42 41.3787 38.6573 41.478 38.8637L47.0636 50.4695C47.3656 51.0893 47.9014 51.5637 48.5532 51.7885C49.205 52.0132 49.9194 51.9698 50.5392 51.6678C51.1583 51.3661 51.6324 50.831 51.8574 50.1801C52.0824 49.5291 52.0398 48.8155 51.7391 48.1958H51.7388ZM36.3944 43.265L34.6613 44.9384L32.6637 43.0095C32.5021 42.8535 32.2863 42.7664 32.0617 42.7664C31.8372 42.7664 31.6214 42.8535 31.4598 43.0095L29.4621 44.9384L27.4645 43.0095C27.3029 42.8535 27.0871 42.7664 26.8625 42.7664C26.638 42.7664 26.4222 42.8535 26.2606 43.0095L24.2629 44.9384L22.2653 43.0095C22.1037 42.8535 21.8879 42.7664 21.6633 42.7664C21.4388 42.7664 21.223 42.8535 21.0614 43.0095L19.0637 44.9384L17.0661 43.0095C16.9045 42.8535 16.6887 42.7664 16.4641 42.7664C16.2396 42.7664 16.0238 42.8535 15.8622 43.0095L13.8645 44.9384L11.8669 43.0095C11.7053 42.8535 11.4895 42.7664 11.2649 42.7664C11.0404 42.7664 10.8246 42.8535 10.663 43.0095L8.66534 44.9384L6.66765 43.0095C6.5061 42.8535 6.2903 42.7664 6.06574 42.7664C5.84117 42.7664 5.62537 42.8535 5.46382 43.0095L3.46613 44.9384L1.73307 43.265V1.73307H36.3944V12.2564C35.7997 12.3423 35.2122 12.4726 34.6369 12.6463C34.5805 12.2296 34.4238 11.8328 34.1804 11.49C33.9369 11.1471 33.6139 10.8685 33.2391 10.6779C32.8643 10.4872 32.4489 10.3904 32.0284 10.3956C31.608 10.4009 31.195 10.508 30.8251 10.7079C30.4551 10.9078 30.1392 11.1944 29.9044 11.5432C29.6695 11.892 29.5228 12.2926 29.4768 12.7105C29.4308 13.1285 29.4868 13.5514 29.6401 13.9429C29.7934 14.3345 30.0395 14.683 30.3571 14.9585C28.9702 16.115 27.8593 17.5668 27.1058 19.2078C26.3522 20.8488 25.9749 22.6375 26.0016 24.4431C26.0283 26.2486 26.4582 28.0254 27.2599 29.6434C28.0616 31.2615 29.2149 32.6798 30.6353 33.7948H28.5956C28.3658 33.7948 28.1454 33.8861 27.9829 34.0486C27.8204 34.2111 27.7291 34.4315 27.7291 34.6613C27.7291 34.8912 27.8204 35.1116 27.9829 35.2741C28.1454 35.4366 28.3658 35.5279 28.5956 35.5279H32.0617C32.2033 35.528 32.3426 35.4933 32.4677 35.4271C32.5927 35.3608 32.6996 35.2649 32.7789 35.1477C33.9173 35.71 35.1376 36.0887 36.3944 36.2695V43.265ZM31.9136 13.8509C31.7371 13.8197 31.5746 13.7345 31.4487 13.607C31.3228 13.4794 31.2396 13.3159 31.2107 13.1391C31.1818 12.9622 31.2085 12.7807 31.2873 12.6197C31.366 12.4587 31.4929 12.3262 31.6503 12.2404C31.8076 12.1547 31.9878 12.12 32.1658 12.1411C32.3437 12.1623 32.5107 12.2382 32.6437 12.3584C32.7766 12.4786 32.8689 12.6372 32.9077 12.8121C32.9466 12.9871 32.9301 13.1698 32.8606 13.335L32.865 13.3369C32.5396 13.4944 32.2224 13.6657 31.9136 13.8509ZM38.1315 34.6613C36.0749 34.6613 34.0645 34.0515 32.3544 32.9089C30.6444 31.7663 29.3116 30.1423 28.5246 28.2422C27.7376 26.3422 27.5317 24.2514 27.9329 22.2343C28.3341 20.2172 29.3245 18.3644 30.7787 16.9102C32.2329 15.4559 34.0858 14.4656 36.1029 14.0643C38.12 13.6631 40.2107 13.869 42.1108 14.6561C44.0108 15.4431 45.6349 16.7759 46.7774 18.4859C47.92 20.1959 48.5299 22.2063 48.5299 24.2629C48.5268 27.0198 47.4302 29.6629 45.4808 31.6123C43.5314 33.5617 40.8884 34.6582 38.1315 34.6613ZM43.4133 38.8898L44.1953 38.5088H44.196H44.197L44.9713 38.1314L45.7229 39.6931L44.1649 40.4523L43.4133 38.8898ZM50.2194 49.6132C50.1637 49.7749 50.0613 49.9165 49.9253 50.0201C49.7892 50.1237 49.6256 50.1848 49.4549 50.1956C49.2842 50.2064 49.1141 50.1664 48.9661 50.0808C48.8181 49.9951 48.6987 49.8675 48.623 49.7141L44.9164 42.0128L46.4745 41.2536L50.1789 48.9511C50.2291 49.0533 50.2585 49.1645 50.2654 49.2782C50.2724 49.3918 50.2567 49.5057 50.2193 49.6133L50.2194 49.6132Z" fill="#407DC9"/>
</svg>
